<svg width="16" height="16" viewBox="0 0 16 16" fill="none" xmlns="http://www.w3.org/2000/svg">
<path fill-rule="evenodd" clip-rule="evenodd" d="M2.43889 2.49446C2.61673 2.31663 2.84201 2.19376 3.08782 2.14056C3.33362 2.08736 3.58955 2.10607 3.825 2.19446L13.4278 5.79557C13.6894 5.89353 13.9128 6.07257 14.0654 6.30654C14.218 6.54052 14.2918 6.81716 14.276 7.09605C14.2601 7.37494 14.1555 7.64146 13.9774 7.85667C13.7994 8.07189 13.5571 8.22451 13.2861 8.29224L9.24667 9.30224L8.23667 13.3411C8.16901 13.6122 8.01644 13.8544 7.80127 14.0326C7.58609 14.2107 7.31959 14.3154 7.04069 14.3313C6.7618 14.3472 6.48513 14.2734 6.25111 14.1209C6.0171 13.9683 5.83801 13.7449 5.74 13.4833L2.13889 3.88057C2.05051 3.64512 2.0318 3.38919 2.085 3.14339C2.1382 2.89758 2.26106 2.6723 2.43889 2.49446Z" fill="white"/>
<path fill-rule="evenodd" clip-rule="evenodd" d="M3.51834 3.01224C3.43986 2.98271 3.35453 2.9764 3.27256 2.99407C3.19059 3.01173 3.11544 3.05263 3.05609 3.11186C2.99674 3.17109 2.9557 3.24616 2.93787 3.3281C2.92004 3.41004 2.92618 3.49537 2.95556 3.57391L6.55723 13.1778C6.59002 13.2649 6.64979 13.3392 6.7278 13.39C6.80581 13.4407 6.89799 13.4652 6.9909 13.4598C7.08381 13.4545 7.17258 13.4196 7.24427 13.3603C7.31597 13.301 7.36683 13.2203 7.38945 13.13L8.52667 8.5828L13.0739 7.44613C13.1644 7.42384 13.2455 7.37312 13.3051 7.3014C13.3646 7.22969 13.3997 7.14076 13.405 7.04766C13.4104 6.95457 13.3857 6.86221 13.3347 6.78415C13.2837 6.70608 13.2091 6.64642 13.1217 6.61391L3.51834 3.01224Z" fill="#010101"/>
</svg>
