<svg width="44" height="14" viewBox="0 0 44 14" fill="none" xmlns="http://www.w3.org/2000/svg">
<rect width="43.5" height="14" rx="2.5" fill="#0C8CE9"/>
<path d="M7.58558 3.95455V10.5H6.59482V4.94531H6.55646L4.99041 5.96804V5.02202L6.62358 3.95455H7.58558ZM11.8395 3.95455V10.5H10.8487V4.94531H10.8104L9.24432 5.96804V5.02202L10.8775 3.95455H11.8395ZM13.6101 10.5V9.78409L15.8249 7.48935C16.0614 7.24006 16.2564 7.02166 16.4098 6.83416C16.5653 6.64453 16.6815 6.46449 16.7582 6.29403C16.8349 6.12358 16.8732 5.94247 16.8732 5.75071C16.8732 5.53338 16.8221 5.34588 16.7198 5.18821C16.6175 5.02841 16.478 4.90589 16.3011 4.82067C16.1243 4.73331 15.9251 4.68963 15.7035 4.68963C15.4691 4.68963 15.2646 4.73757 15.0898 4.83345C14.9151 4.92933 14.7809 5.06463 14.6871 5.23935C14.5934 5.41406 14.5465 5.61861 14.5465 5.85298H13.6037C13.6037 5.45455 13.6953 5.10618 13.8786 4.80788C14.0618 4.50959 14.3132 4.27841 14.6328 4.11435C14.9524 3.94815 15.3157 3.86506 15.7227 3.86506C16.1339 3.86506 16.4961 3.94709 16.8093 4.11115C17.1246 4.27308 17.3707 4.49467 17.5476 4.77592C17.7244 5.05504 17.8129 5.37038 17.8129 5.72195C17.8129 5.96484 17.767 6.20241 17.6754 6.43466C17.5859 6.6669 17.4293 6.92578 17.2056 7.21129C16.9819 7.49467 16.6708 7.83878 16.2724 8.24361L14.9716 9.60511V9.65305H17.9183V10.5H13.6101Z" fill="#FCFCFC"/>
<path d="M21.5 5.25L23.25 7L25 8.75" stroke="#FCFCFC" stroke-width="0.9" stroke-linecap="round"/>
<path d="M25 5.25L23.25 7L21.5 8.75" stroke="#FCFCFC" stroke-width="0.9" stroke-linecap="round"/>
<path d="M30.9148 10.5895C30.6229 10.5852 30.3352 10.532 30.0518 10.4297C29.7706 10.3274 29.5149 10.157 29.2848 9.91832C29.0547 9.67969 28.8704 9.35902 28.7319 8.95632C28.5955 8.55362 28.5273 8.05078 28.5273 7.4478C28.5273 6.87678 28.5838 6.36967 28.6967 5.92649C28.8118 5.48331 28.9769 5.10938 29.1921 4.80469C29.4073 4.49787 29.6673 4.26456 29.9719 4.10476C30.2766 3.94496 30.6186 3.86506 30.9979 3.86506C31.3878 3.86506 31.734 3.94176 32.0366 4.09517C32.3391 4.24858 32.5842 4.46058 32.7717 4.73118C32.9613 5.00178 33.0817 5.30966 33.1328 5.65483H32.158C32.092 5.3821 31.9609 5.15945 31.7649 4.98686C31.5689 4.81428 31.3132 4.72798 30.9979 4.72798C30.5185 4.72798 30.1445 4.93679 29.8761 5.3544C29.6097 5.77202 29.4755 6.35263 29.4734 7.09624H29.5213C29.6342 6.91087 29.7727 6.7532 29.9368 6.62322C30.103 6.49112 30.2884 6.38991 30.4929 6.3196C30.6996 6.24716 30.9169 6.21094 31.1449 6.21094C31.5241 6.21094 31.8672 6.30362 32.174 6.48899C32.483 6.67223 32.729 6.92578 32.9123 7.24964C33.0955 7.57351 33.1871 7.94425 33.1871 8.36186C33.1871 8.77947 33.0923 9.15767 32.9027 9.49645C32.7152 9.83523 32.451 10.1037 32.1101 10.3018C31.7692 10.4979 31.3707 10.5938 30.9148 10.5895ZM30.9116 9.75852C31.163 9.75852 31.3878 9.69673 31.5859 9.57315C31.7841 9.44957 31.9407 9.28338 32.0558 9.07457C32.1708 8.86577 32.2283 8.63246 32.2283 8.37464C32.2283 8.12322 32.1719 7.89418 32.0589 7.6875C31.9482 7.48082 31.7947 7.31676 31.5987 7.19531C31.4048 7.07386 31.1832 7.01314 30.9339 7.01314C30.7443 7.01314 30.5685 7.04936 30.4066 7.1218C30.2468 7.19425 30.1062 7.29439 29.9847 7.42223C29.8633 7.55007 29.7674 7.69709 29.6971 7.86328C29.6289 8.02734 29.5948 8.20099 29.5948 8.38423C29.5948 8.62926 29.6513 8.85618 29.7642 9.06499C29.8793 9.27379 30.0359 9.44212 30.234 9.56996C30.4343 9.69567 30.6602 9.75852 30.9116 9.75852ZM36.5629 10.5895C36.1048 10.5895 35.7 10.5107 35.3485 10.353C34.999 10.1953 34.7252 9.97798 34.5271 9.70099C34.3289 9.42401 34.2309 9.10866 34.233 8.75497C34.2309 8.47798 34.2874 8.22337 34.4024 7.99112C34.5196 7.75675 34.6784 7.56179 34.8786 7.40625C35.0789 7.24858 35.3026 7.14844 35.5498 7.10582V7.06747C35.2238 6.98864 34.9628 6.81392 34.7668 6.54332C34.5708 6.27273 34.4738 5.96165 34.4759 5.61009C34.4738 5.27557 34.5622 4.97727 34.7412 4.7152C34.9223 4.45099 35.1705 4.24325 35.4859 4.09197C35.8012 3.9407 36.1602 3.86506 36.5629 3.86506C36.9614 3.86506 37.3172 3.94176 37.6304 4.09517C37.9458 4.24645 38.194 4.45419 38.3751 4.71839C38.5562 4.98047 38.6478 5.2777 38.6499 5.61009C38.6478 5.96165 38.5477 6.27273 38.3495 6.54332C38.1514 6.81392 37.8936 6.98864 37.5761 7.06747V7.10582C37.8211 7.14844 38.0416 7.24858 38.2377 7.40625C38.4358 7.56179 38.5935 7.75675 38.7107 7.99112C38.83 8.22337 38.8907 8.47798 38.8928 8.75497C38.8907 9.10866 38.7906 9.42401 38.5924 9.70099C38.3943 9.97798 38.1194 10.1953 37.7678 10.353C37.4184 10.5107 37.0168 10.5895 36.5629 10.5895ZM36.5629 9.78089C36.8335 9.78089 37.0679 9.73615 37.2661 9.64666C37.4642 9.55504 37.6176 9.42827 37.7263 9.26634C37.835 9.10227 37.8904 8.91051 37.8925 8.69105C37.8904 8.46307 37.8307 8.26172 37.7135 8.087C37.5985 7.91229 37.4419 7.77486 37.2437 7.67472C37.0455 7.57457 36.8186 7.5245 36.5629 7.5245C36.3051 7.5245 36.0761 7.57457 35.8758 7.67472C35.6755 7.77486 35.5178 7.91229 35.4028 8.087C35.2877 8.26172 35.2313 8.46307 35.2334 8.69105C35.2313 8.91051 35.2835 9.10227 35.39 9.26634C35.4987 9.42827 35.6531 9.55504 35.8534 9.64666C36.0537 9.73615 36.2902 9.78089 36.5629 9.78089ZM36.5629 6.73509C36.7803 6.73509 36.9731 6.69141 37.1414 6.60405C37.3097 6.51669 37.4419 6.39524 37.5377 6.2397C37.6357 6.08416 37.6858 5.90199 37.6879 5.69318C37.6858 5.48864 37.6368 5.30966 37.5409 5.15625C37.4472 5.00284 37.3161 4.88459 37.1478 4.80149C36.9795 4.71626 36.7845 4.67365 36.5629 4.67365C36.3371 4.67365 36.1389 4.71626 35.9685 4.80149C35.8002 4.88459 35.6691 5.00284 35.5754 5.15625C35.4816 5.30966 35.4358 5.48864 35.4379 5.69318C35.4358 5.90199 35.4827 6.08416 35.5786 6.2397C35.6744 6.39524 35.8066 6.51669 35.9749 6.60405C36.1453 6.69141 36.3414 6.73509 36.5629 6.73509Z" fill="#FCFCFC"/>
</svg>
