<svg width="51" height="47" viewBox="0 0 51 47" fill="none" xmlns="http://www.w3.org/2000/svg">
<path fill-rule="evenodd" clip-rule="evenodd" d="M2.43889 2.49446C2.61673 2.31663 2.84201 2.19376 3.08782 2.14056C3.33362 2.08736 3.58955 2.10607 3.825 2.19446L13.4278 5.79557C13.6894 5.89353 13.9128 6.07257 14.0654 6.30654C14.218 6.54052 14.2918 6.81716 14.276 7.09605C14.2601 7.37494 14.1555 7.64146 13.9774 7.85667C13.7994 8.07189 13.5571 8.22451 13.2861 8.29224L9.24667 9.30224L8.23667 13.3411C8.16901 13.6122 8.01644 13.8544 7.80127 14.0326C7.58609 14.2107 7.31959 14.3154 7.04069 14.3313C6.76179 14.3472 6.48513 14.2734 6.25111 14.1209C6.0171 13.9683 5.83801 13.7449 5.74 13.4833L2.13889 3.88057C2.05051 3.64512 2.03179 3.38919 2.085 3.14339C2.1382 2.89758 2.26106 2.6723 2.43889 2.49446Z" fill="white"/>
<path fill-rule="evenodd" clip-rule="evenodd" d="M3.51834 3.01223C3.43985 2.9827 3.35453 2.97639 3.27256 2.99405C3.19059 3.01172 3.11544 3.05261 3.05609 3.11184C2.99674 3.17108 2.95569 3.24615 2.93787 3.32808C2.92004 3.41002 2.92618 3.49536 2.95556 3.5739L6.55722 13.1778C6.59002 13.2649 6.64979 13.3392 6.7278 13.3899C6.80581 13.4407 6.89799 13.4652 6.9909 13.4598C7.08381 13.4545 7.17258 13.4196 7.24427 13.3603C7.31597 13.301 7.36683 13.2203 7.38945 13.13L8.52667 8.58278L13.0739 7.44612C13.1644 7.42383 13.2455 7.3731 13.305 7.30139C13.3646 7.22967 13.3997 7.14074 13.405 7.04765C13.4104 6.95455 13.3857 6.8622 13.3347 6.78413C13.2837 6.70606 13.2091 6.6464 13.1217 6.61389L3.51834 3.01223Z" fill="#FFC700"/>
<g filter="url(#filter0_d_6_4296)">
<rect x="12.8557" y="15" width="29.3942" height="14" rx="0.799281" fill="#FFC700"/>
<path d="M20.8673 18.6058H21.8351V22.8113C21.8351 23.2589 21.73 23.6554 21.5198 24.0009C21.3096 24.3443 21.014 24.6149 20.6331 24.8127C20.2522 25.0083 19.8057 25.1062 19.2937 25.1062C18.7837 25.1062 18.3383 25.0083 17.9574 24.8127C17.5765 24.6149 17.2809 24.3443 17.0707 24.0009C16.8605 23.6554 16.7553 23.2589 16.7553 22.8113V18.6058H17.7201V22.7333C17.7201 23.0226 17.7836 23.2797 17.9106 23.5045C18.0396 23.7293 18.2217 23.9062 18.4569 24.0352C18.6921 24.1622 18.9711 24.2257 19.2937 24.2257C19.6184 24.2257 19.8983 24.1622 20.1336 24.0352C20.3708 23.9062 20.5519 23.7293 20.6768 23.5045C20.8038 23.2797 20.8673 23.0226 20.8673 22.7333V18.6058ZM23.2508 25V20.2043H24.1468V20.9849H24.2062C24.3061 20.7205 24.4695 20.5145 24.6964 20.3667C24.9232 20.2168 25.1949 20.1419 25.5112 20.1419C25.8318 20.1419 26.1003 20.2168 26.3168 20.3667C26.5353 20.5165 26.6966 20.7226 26.8007 20.9849H26.8507C26.9651 20.7288 27.1473 20.5249 27.397 20.3729C27.6468 20.2189 27.9445 20.1419 28.29 20.1419C28.725 20.1419 29.0799 20.2782 29.3547 20.5509C29.6315 20.8236 29.7699 21.2346 29.7699 21.7841V25H28.8364V21.8716C28.8364 21.5469 28.7479 21.3117 28.571 21.166C28.3941 21.0202 28.1828 20.9474 27.9372 20.9474C27.6333 20.9474 27.397 21.0411 27.2284 21.2284C27.0598 21.4136 26.9755 21.652 26.9755 21.9434V25H26.0451V21.8122C26.0451 21.5521 25.964 21.3429 25.8016 21.1847C25.6393 21.0265 25.428 20.9474 25.1678 20.9474C24.9909 20.9474 24.8275 20.9942 24.6776 21.0879C24.5298 21.1795 24.4101 21.3075 24.3186 21.4719C24.2291 21.6364 24.1843 21.8268 24.1843 22.0433V25H23.2508ZM32.5047 25.1062C32.2008 25.1062 31.926 25.05 31.6804 24.9376C31.4348 24.8231 31.2402 24.6576 31.0966 24.4411C30.955 24.2247 30.8842 23.9593 30.8842 23.645C30.8842 23.3744 30.9363 23.1517 31.0404 22.9768C31.1444 22.802 31.2849 22.6636 31.4619 22.5616C31.6388 22.4596 31.8365 22.3826 32.0551 22.3305C32.2736 22.2785 32.4963 22.2389 32.7232 22.2119C33.0105 22.1786 33.2436 22.1515 33.4226 22.1307C33.6016 22.1078 33.7317 22.0714 33.8129 22.0214C33.894 21.9715 33.9346 21.8903 33.9346 21.7779V21.756C33.9346 21.4834 33.8576 21.2721 33.7036 21.1222C33.5516 20.9724 33.3248 20.8974 33.0229 20.8974C32.7086 20.8974 32.461 20.9672 32.2799 21.1066C32.1009 21.244 31.977 21.397 31.9083 21.5656L31.031 21.3658C31.1351 21.0744 31.287 20.8392 31.4868 20.6602C31.6887 20.4791 31.9208 20.3479 32.1831 20.2668C32.4453 20.1835 32.7211 20.1419 33.0105 20.1419C33.202 20.1419 33.4049 20.1648 33.6193 20.2106C33.8358 20.2543 34.0377 20.3354 34.225 20.4541C34.4144 20.5727 34.5695 20.7424 34.6902 20.963C34.8109 21.1816 34.8713 21.4657 34.8713 21.8154V25H33.9596V24.3443H33.9221C33.8618 24.4651 33.7712 24.5837 33.6505 24.7003C33.5298 24.8168 33.3747 24.9136 33.1853 24.9906C32.9959 25.0676 32.769 25.1062 32.5047 25.1062ZM32.7076 24.3568C32.9657 24.3568 33.1863 24.3058 33.3695 24.2038C33.5548 24.1019 33.6953 23.9686 33.791 23.8042C33.8888 23.6377 33.9378 23.4597 33.9378 23.2703V22.6521C33.9044 22.6854 33.8399 22.7166 33.7442 22.7458C33.6505 22.7728 33.5433 22.7968 33.4226 22.8176C33.3019 22.8363 33.1843 22.854 33.0698 22.8707C32.9553 22.8852 32.8596 22.8977 32.7825 22.9081C32.6015 22.931 32.436 22.9695 32.2861 23.0237C32.1383 23.0778 32.0197 23.1558 31.9302 23.2578C31.8428 23.3577 31.7991 23.4909 31.7991 23.6575C31.7991 23.8885 31.8844 24.0633 32.0551 24.182C32.2258 24.2985 32.4433 24.3568 32.7076 24.3568ZM36.2026 25V20.2043H37.1049V20.9661H37.1549C37.2423 20.708 37.3963 20.5051 37.617 20.3573C37.8397 20.2074 38.0915 20.1325 38.3725 20.1325C38.4308 20.1325 38.4995 20.1346 38.5786 20.1388C38.6598 20.1429 38.7233 20.1481 38.7691 20.1544V21.0473C38.7316 21.0369 38.665 21.0255 38.5692 21.013C38.4735 20.9984 38.3777 20.9911 38.282 20.9911C38.0614 20.9911 37.8647 21.0379 37.6919 21.1316C37.5212 21.2232 37.3859 21.3512 37.286 21.5156C37.1861 21.678 37.1362 21.8632 37.1362 22.0714V25H36.2026Z" fill="black"/>
</g>
<defs>
<filter id="filter0_d_6_4296" x="-8.23279" y="15" width="58.7828" height="31.3" filterUnits="userSpaceOnUse" color-interpolation-filters="sRGB">
<feFlood flood-opacity="0" result="BackgroundImageFix"/>
<feColorMatrix in="SourceAlpha" type="matrix" values="0 0 0 0 0 0 0 0 0 0 0 0 0 0 0 0 0 0 127 0" result="hardAlpha"/>
<feOffset dy="9"/>
<feGaussianBlur stdDeviation="4.15"/>
<feComposite in2="hardAlpha" operator="out"/>
<feColorMatrix type="matrix" values="0 0 0 0 1 0 0 0 0 1 0 0 0 0 1 0 0 0 0.03 0"/>
<feBlend mode="normal" in2="BackgroundImageFix" result="effect1_dropShadow_6_4296"/>
<feBlend mode="normal" in="SourceGraphic" in2="effect1_dropShadow_6_4296" result="shape"/>
</filter>
</defs>
</svg>
