<svg width="16" height="16" viewBox="0 0 16 16" fill="none" xmlns="http://www.w3.org/2000/svg">
<g clip-path="url(#clip0_6_4218)">
<path d="M4.62222 8.09445C4.53889 7.77222 4.45 7.34445 4.26111 6.72778C4.07778 6.11667 3.96111 5.97223 3.85 5.64445C3.73333 5.31667 3.58333 5.01111 3.40556 4.60556C3.24393 4.19037 3.10848 3.76546 3 3.33334C2.92778 2.97222 3.01667 2.59445 3.25 2.3C3.56667 1.99445 4.02222 1.87778 4.45 1.99445C4.78333 2.13889 5.06111 2.38334 5.26111 2.68889C5.52222 3.10556 5.73333 3.55 5.89444 4.01111C6.14444 4.65 6.32222 5.30556 6.43333 5.97778L6.51111 6.37778V5.35556C6.51111 4.46667 6.45555 3.74445 6.51111 2.76111C6.51111 2.65 6.56667 2.23889 6.58333 2.12778C6.60556 1.74445 6.83333 1.40556 7.17222 1.23889C7.56111 1.07222 8.01667 1.07222 8.40555 1.23889C8.76111 1.40556 8.99444 1.73889 9.01667 2.12778C9.01667 2.22222 9.09444 3.00556 9.09444 3.10556V6.31667C9.11667 5.15 9.21667 3.98889 9.39444 2.83889C9.5 2.47778 9.75556 2.18334 10.0944 2.01667C10.5111 1.85 10.9833 1.93334 11.3278 2.23334C11.5833 2.51111 11.7333 2.86667 11.75 3.24445V6.37778C11.8278 6.12778 11.9167 5.9 11.9889 5.72223C12.0611 5.54445 12.2 5.18334 12.3056 4.96667C12.4167 4.75556 12.5333 4.55 12.6667 4.35556C12.8056 4.13334 13.0111 3.96111 13.2611 3.86111C13.3705 3.81941 13.487 3.79985 13.604 3.80358C13.721 3.80731 13.8361 3.83426 13.9426 3.88285C14.049 3.93144 14.1448 4.0007 14.2243 4.08662C14.3038 4.17254 14.3654 4.2734 14.4056 4.38334C14.4611 4.70556 14.4611 5.03334 14.4056 5.35556C14.35 5.84445 14.2389 6.33334 14.0944 6.81111C13.9833 7.2 13.8556 7.89445 13.7944 8.21667C13.7389 8.55 13.5944 9.43889 13.4778 9.82778C13.3111 10.2889 13.0722 10.7222 12.7833 11.1222C12.3535 11.5977 11.9977 12.1352 11.7278 12.7167C11.5992 13.2751 11.6068 13.8563 11.75 14.4111C11.3899 14.4495 11.0268 14.4495 10.6667 14.4111C10.3222 14.3556 9.9 13.6722 9.78333 13.4556C9.75604 13.3992 9.71342 13.3517 9.66036 13.3184C9.6073 13.2852 9.54595 13.2675 9.48333 13.2675C9.42071 13.2675 9.35936 13.2852 9.3063 13.3184C9.25325 13.3517 9.21063 13.3992 9.18333 13.4556C8.98333 13.7889 8.55555 14.4 8.25555 14.4389C7.66667 14.5056 6.45 14.4389 5.48889 14.4389C5.48889 14.4389 5.65556 13.55 5.28333 13.2389C4.91667 12.9222 4.55555 12.55 4.28333 12.3056L3.55 11.4889C3.3 11.1722 2.99444 10.5278 2.45555 9.72778C2.14444 9.28334 1.57222 8.76667 1.32778 8.33889C1.1202 7.98732 1.06028 7.56786 1.16111 7.17222C1.23276 6.91898 1.39551 6.70117 1.61805 6.56067C1.84059 6.42017 2.10722 6.3669 2.36667 6.41111C2.77778 6.43889 3.16111 6.60556 3.46111 6.88889C3.69444 7.09445 3.91667 7.31111 4.12222 7.55C4.26111 7.71667 4.3 7.79445 4.45556 7.99445C4.61667 8.2 4.72222 8.40556 4.64444 8.10556" fill="white"/>
<path d="M4.62222 8.09445C4.53889 7.77223 4.45 7.34445 4.26111 6.72778C4.07778 6.11667 3.96111 5.97223 3.85 5.64445C3.73333 5.31667 3.58333 5.01111 3.40555 4.60556C3.24393 4.19037 3.10848 3.76546 3 3.33334C2.92778 2.97222 3.01667 2.59445 3.25 2.3C3.56667 1.99445 4.02222 1.87778 4.45 1.99445C4.78333 2.13889 5.06111 2.38334 5.26111 2.68889C5.52222 3.10556 5.73333 3.55 5.89444 4.01111C6.14444 4.65 6.32222 5.30556 6.43333 5.97778L6.51111 6.37778V5.35556C6.51111 4.46667 6.45555 3.74445 6.51111 2.76111C6.51111 2.65 6.56667 2.23889 6.58333 2.12778C6.60555 1.74445 6.83333 1.40556 7.17222 1.23889C7.56111 1.07222 8.01667 1.07222 8.40555 1.23889C8.76111 1.40556 8.99444 1.73889 9.01667 2.12778C9.01667 2.22222 9.09444 3.00556 9.09444 3.10556V6.31667C9.11667 5.15 9.21667 3.98889 9.39444 2.83889C9.5 2.47778 9.75555 2.18334 10.0944 2.01667C10.5111 1.85 10.9833 1.93334 11.3278 2.23334C11.5833 2.51111 11.7333 2.86667 11.75 3.24445V6.37778C11.8278 6.12778 11.9167 5.9 11.9889 5.72223C12.0611 5.54445 12.2 5.18334 12.3056 4.96667C12.4167 4.75556 12.5333 4.55 12.6667 4.35556C12.8056 4.13334 13.0111 3.96111 13.2611 3.86111C13.3705 3.81941 13.487 3.79985 13.604 3.80358C13.721 3.80731 13.8361 3.83426 13.9426 3.88285C14.049 3.93144 14.1448 4.0007 14.2243 4.08662C14.3038 4.17254 14.3654 4.2734 14.4056 4.38334C14.4611 4.70556 14.4611 5.03334 14.4056 5.35556C14.35 5.84445 14.2389 6.33334 14.0944 6.81111C13.9833 7.2 13.8556 7.89445 13.7944 8.21667C13.7389 8.55 13.5944 9.43889 13.4778 9.82778C13.3111 10.2889 13.0722 10.7222 12.7833 11.1222C12.3535 11.5977 11.9977 12.1352 11.7278 12.7167C11.5992 13.2751 11.6068 13.8563 11.75 14.4111C11.3899 14.4495 11.0268 14.4495 10.6667 14.4111C10.3222 14.3556 9.9 13.6722 9.78333 13.4556C9.75604 13.3992 9.71342 13.3517 9.66036 13.3184C9.6073 13.2852 9.54595 13.2675 9.48333 13.2675C9.42071 13.2675 9.35936 13.2852 9.3063 13.3184C9.25324 13.3517 9.21063 13.3992 9.18333 13.4556C8.98333 13.7889 8.55555 14.4 8.25555 14.4389C7.66667 14.5056 6.45 14.4389 5.48889 14.4389C5.48889 14.4389 5.65556 13.55 5.28333 13.2389C4.91667 12.9222 4.55555 12.55 4.28333 12.3056L3.55 11.4889C3.3 11.1722 2.99444 10.5278 2.45555 9.72778C2.14444 9.28334 1.57222 8.76667 1.32778 8.33889C1.1202 7.98732 1.06028 7.56786 1.16111 7.17223C1.23276 6.91898 1.39551 6.70117 1.61805 6.56067C1.84059 6.42017 2.10722 6.3669 2.36667 6.41111C2.77778 6.43889 3.16111 6.60556 3.46111 6.88889C3.69444 7.09445 3.91667 7.31111 4.12222 7.55C4.26111 7.71667 4.3 7.79445 4.45556 7.99445C4.61667 8.2 4.72222 8.40556 4.64444 8.10556" stroke="black" stroke-width="1.25" stroke-linecap="round" stroke-linejoin="round"/>
<path d="M10.7222 11.2778V7.8111C10.7222 7.59999 10.5556 7.43332 10.3444 7.43332C10.1333 7.43332 9.95556 7.59999 9.95556 7.8111V11.2722C9.95556 11.4833 10.1333 11.65 10.3444 11.65C10.5556 11.65 10.7278 11.4833 10.7278 11.2722L10.7222 11.2778ZM8.96111 11.2778L8.95556 7.80554C8.95556 7.59999 8.78334 7.43332 8.57223 7.43332C8.36667 7.43332 8.19445 7.59999 8.19445 7.8111L8.20556 11.2778C8.20556 11.4833 8.37223 11.65 8.58334 11.65C8.79445 11.65 8.96667 11.4833 8.96111 11.2722V11.2778ZM6.43889 7.81665L6.45556 11.2722C6.45556 11.4833 6.62223 11.65 6.83334 11.65C7.03889 11.65 7.20556 11.4778 7.20556 11.2667L7.18334 7.8111C7.18334 7.59999 7.01667 7.43332 6.81111 7.43332C6.7615 7.43404 6.71252 7.44453 6.66696 7.46419C6.6214 7.48385 6.58017 7.51229 6.5456 7.54788C6.51103 7.58348 6.48382 7.62554 6.46551 7.67165C6.4472 7.71777 6.43816 7.76704 6.43889 7.81665Z" fill="black"/>
</g>
<defs>
<clipPath id="clip0_6_4218">
<rect width="16" height="16" fill="white"/>
</clipPath>
</defs>
</svg>
