<svg width="16" height="16" viewBox="0 0 16 16" fill="none" xmlns="http://www.w3.org/2000/svg">
<path d="M3.78333 2.92218C4.28333 2.7333 5.27222 2.84996 5.52778 3.41107C5.78889 3.97218 5.94445 4.69996 5.95556 4.52218C5.93889 3.9833 5.98334 3.44996 6.09445 2.92218C6.20556 2.58885 6.47222 2.32218 6.81111 2.19996C7.12048 2.10459 7.44833 2.08553 7.76667 2.14441C8.08889 2.21107 8.37778 2.39441 8.56667 2.66107C8.81111 3.27218 8.94445 3.91107 8.97222 4.56663C9 4.01107 9.09445 3.45552 9.25 2.92218C9.42778 2.67774 9.67778 2.49996 9.97222 2.42218C10.3157 2.35941 10.6677 2.35941 11.0111 2.42218C11.2889 2.51663 11.5389 2.69441 11.7167 2.9333C11.9389 3.48885 12.0722 4.06663 12.1111 4.65552C12.1111 4.80552 12.1833 4.25552 12.4167 3.88885C12.4515 3.74874 12.5151 3.61739 12.6032 3.50307C12.6914 3.38876 12.8024 3.29397 12.929 3.22469C13.0557 3.15541 13.1954 3.11314 13.3392 3.10056C13.483 3.08798 13.6279 3.10536 13.7647 3.15159C13.9014 3.19782 14.0272 3.27191 14.1338 3.36918C14.2405 3.46644 14.3259 3.58478 14.3846 3.7167C14.4432 3.84863 14.4739 3.99128 14.4746 4.13566C14.4754 4.28003 14.4462 4.423 14.3889 4.55552V6.90552C14.35 7.51663 14.2667 8.11663 14.1389 8.71107C13.9611 9.23885 13.7056 9.73885 13.3889 10.2C12.8854 10.7622 12.4696 11.3971 12.1556 12.0833C12.0032 12.7419 12.0089 13.4273 12.1722 14.0833C11.75 14.1222 11.3222 14.1222 10.8944 14.0833C10.4889 14.0166 9.98889 13.2055 9.85556 12.9555C9.82279 12.89 9.77244 12.8349 9.71013 12.7964C9.64782 12.7579 9.57602 12.7375 9.50278 12.7375C9.42954 12.7375 9.35774 12.7579 9.29543 12.7964C9.23312 12.8349 9.18277 12.89 9.15 12.9555C8.92222 13.35 8.41111 14.0666 8.11111 14.1111C7.41111 14.1944 5.96667 14.1111 4.84445 14.1111C4.84445 14.1111 5.04445 13.0722 4.60556 12.6944C4.16667 12.3222 3.74445 11.8833 3.42222 11.5944L2.55556 10.6389C1.94658 10.0728 1.50135 9.35314 1.26667 8.55552C1.04445 7.57774 1.07222 7.11107 1.26667 6.72218C1.46772 6.39183 1.78462 6.14822 2.15556 6.03885C2.45556 5.9833 2.76667 6.00552 3.06667 6.10552C3.27222 6.18885 3.44445 6.32774 3.57778 6.51107C3.81667 6.8333 3.9 6.98885 3.79445 6.6333C3.68889 6.2833 3.46111 6.02219 3.35 5.59441C3.12778 5.09441 2.98889 4.54996 2.95 4.00552C2.99445 3.50552 3.33889 3.09441 3.81667 2.96107" fill="white"/>
<path d="M3.78333 2.92218C4.28333 2.7333 5.27222 2.84996 5.52778 3.41107C5.78889 3.97218 5.94445 4.69996 5.95556 4.52218C5.93889 3.9833 5.98334 3.44996 6.09445 2.92218C6.20556 2.58885 6.47222 2.32218 6.81111 2.19996C7.12048 2.10459 7.44833 2.08553 7.76667 2.14441C8.08889 2.21107 8.37778 2.39441 8.56667 2.66107C8.81111 3.27218 8.94445 3.91107 8.97222 4.56663C9 4.01107 9.09445 3.45552 9.25 2.92218C9.42778 2.67774 9.67778 2.49996 9.97222 2.42218C10.3157 2.35941 10.6677 2.35941 11.0111 2.42218C11.2889 2.51663 11.5389 2.69441 11.7167 2.9333C11.9389 3.48885 12.0722 4.06663 12.1111 4.65552C12.1111 4.80552 12.1833 4.25552 12.4167 3.88885C12.4515 3.74874 12.5151 3.61739 12.6032 3.50307C12.6914 3.38876 12.8024 3.29397 12.929 3.22469C13.0557 3.15541 13.1954 3.11314 13.3392 3.10056C13.483 3.08798 13.6279 3.10536 13.7647 3.15159C13.9014 3.19782 14.0272 3.27191 14.1338 3.36918C14.2405 3.46644 14.3259 3.58478 14.3846 3.7167C14.4432 3.84863 14.4739 3.99128 14.4746 4.13566C14.4754 4.28003 14.4462 4.423 14.3889 4.55552V6.90552C14.35 7.51663 14.2667 8.11663 14.1389 8.71107C13.9611 9.23885 13.7056 9.73885 13.3889 10.2C12.8855 10.7622 12.4697 11.3971 12.1556 12.0833C12.0032 12.7419 12.0089 13.4273 12.1722 14.0833C11.75 14.1222 11.3222 14.1222 10.8944 14.0833C10.4889 14.0166 9.98889 13.2055 9.85556 12.9555C9.82279 12.89 9.77244 12.8349 9.71013 12.7964C9.64782 12.7579 9.57602 12.7375 9.50278 12.7375C9.42954 12.7375 9.35774 12.7579 9.29543 12.7964C9.23312 12.8349 9.18277 12.89 9.15 12.9555C8.92222 13.35 8.41111 14.0666 8.11111 14.1111C7.41111 14.1944 5.96667 14.1111 4.84445 14.1111C4.84445 14.1111 5.04445 13.0722 4.60556 12.6944C4.16667 12.3222 3.74445 11.8833 3.42222 11.5944L2.55556 10.6389C1.94658 10.0728 1.50135 9.35313 1.26667 8.55552C1.04445 7.57774 1.07222 7.11107 1.26667 6.72218C1.46772 6.39183 1.78462 6.14822 2.15556 6.03885C2.45556 5.9833 2.76667 6.00552 3.06667 6.10552C3.27222 6.18885 3.44445 6.32774 3.57778 6.51107C3.81667 6.8333 3.9 6.98885 3.79445 6.6333C3.68889 6.2833 3.46111 6.02218 3.35 5.59441C3.12778 5.09441 2.98889 4.54996 2.95 4.00552C2.97222 3.50552 3.30556 3.07218 3.78333 2.92218Z" stroke="black" stroke-width="1.25" stroke-linejoin="round"/>
<path d="M10.7167 11.1667V7.7C10.7167 7.48889 10.55 7.32222 10.3333 7.32222C10.1222 7.32222 9.95 7.48889 9.95 7.7V11.1611C9.95 11.3722 10.1167 11.5389 10.3333 11.5389C10.5444 11.5389 10.7167 11.3722 10.7167 11.1611V11.1667ZM8.95555 11.1667L8.94444 7.69444C8.94444 7.48889 8.77778 7.32222 8.56666 7.32222C8.35555 7.32222 8.18889 7.48889 8.18889 7.7L8.19444 11.1667C8.19444 11.3722 8.36666 11.5389 8.57778 11.5389C8.78333 11.5389 8.95555 11.3722 8.95555 11.1611V11.1667ZM6.42778 7.70555L6.45 11.1611C6.45 11.3722 6.61666 11.5389 6.82222 11.5389C7.02778 11.5389 7.19444 11.3667 7.19444 11.1556L7.17222 7.7C7.17222 7.48889 7.00555 7.32222 6.8 7.32222C6.75039 7.32294 6.7014 7.33343 6.65585 7.35309C6.61029 7.37275 6.56905 7.40119 6.53448 7.43678C6.49992 7.47238 6.4727 7.51444 6.4544 7.56055C6.43609 7.60667 6.42704 7.65594 6.42778 7.70555Z" fill="black"/>
</svg>
