<svg width="51" height="11" viewBox="0 0 51 11" fill="none" xmlns="http://www.w3.org/2000/svg">
<rect x="3.12132" y="3.3806" width="3" height="3" rx="0.2" transform="rotate(45 3.12132 3.3806)" fill="#D1A8FF"/>
<rect x="5.66691" y="0.835007" width="3" height="3" rx="0.2" transform="rotate(45 5.66691 0.835007)" fill="#D1A8FF"/>
<rect x="5.6669" y="5.92618" width="3" height="3" rx="0.2" transform="rotate(45 5.6669 5.92618)" fill="#D1A8FF"/>
<rect x="8.21249" y="3.38058" width="3" height="3" rx="0.2" transform="rotate(45 8.21249 3.38058)" fill="#D1A8FF"/>
<path d="M14.5491 9V2.45455H18.6081V3.30469H15.5367V5.29901H18.3172V6.14595H15.5367V9H14.5491ZM19.6843 9V4.09091H20.608V4.87074H20.6591C20.7486 4.60653 20.9063 4.39879 21.1321 4.24751C21.3601 4.0941 21.6179 4.0174 21.9056 4.0174C21.9652 4.0174 22.0355 4.01953 22.1165 4.02379C22.1996 4.02805 22.2646 4.03338 22.3114 4.03977V4.95384C22.2731 4.94318 22.2049 4.93146 22.1069 4.91868C22.0089 4.90376 21.9109 4.89631 21.8129 4.89631C21.587 4.89631 21.3857 4.94425 21.2088 5.04013C21.0341 5.13388 20.8956 5.26491 20.7933 5.43324C20.6911 5.59943 20.6399 5.78906 20.6399 6.00213V9H19.6843ZM24.5231 9.10866C24.212 9.10866 23.9308 9.05114 23.6793 8.93608C23.4279 8.81889 23.2287 8.6495 23.0817 8.42791C22.9368 8.20632 22.8644 7.93466 22.8644 7.61293C22.8644 7.33594 22.9176 7.10795 23.0242 6.92898C23.1307 6.75 23.2745 6.60831 23.4556 6.50391C23.6367 6.3995 23.8391 6.32067 24.0629 6.2674C24.2866 6.21413 24.5146 6.17365 24.7468 6.14595C25.0408 6.11186 25.2795 6.08416 25.4627 6.06286C25.646 6.03942 25.7791 6.00213 25.8622 5.95099C25.9453 5.89986 25.9869 5.81676 25.9869 5.7017V5.67933C25.9869 5.40021 25.908 5.18395 25.7504 5.03054C25.5948 4.87713 25.3626 4.80043 25.0536 4.80043C24.7319 4.80043 24.4783 4.8718 24.293 5.01456C24.1097 5.15518 23.983 5.31179 23.9127 5.48438L23.0146 5.27983C23.1211 4.98153 23.2766 4.74077 23.4812 4.55753C23.6879 4.37216 23.9254 4.23793 24.1939 4.15483C24.4624 4.0696 24.7447 4.02699 25.0408 4.02699C25.2369 4.02699 25.4446 4.05043 25.6641 4.0973C25.8857 4.14205 26.0923 4.22514 26.2841 4.34659C26.478 4.46804 26.6367 4.64169 26.7603 4.86754C26.8839 5.09126 26.9457 5.3821 26.9457 5.74006V9H26.0124V8.32884H25.9741C25.9123 8.45241 25.8196 8.57386 25.696 8.69318C25.5725 8.8125 25.4137 8.91158 25.2198 8.99041C25.0259 9.06925 24.7937 9.10866 24.5231 9.10866ZM24.7308 8.34162C24.995 8.34162 25.2209 8.28942 25.4084 8.18501C25.598 8.08061 25.7418 7.94425 25.8399 7.77592C25.94 7.60547 25.9901 7.4233 25.9901 7.2294V6.59659C25.956 6.63068 25.8899 6.66264 25.7919 6.69247C25.696 6.72017 25.5863 6.74467 25.4627 6.76598C25.3391 6.78516 25.2188 6.80327 25.1016 6.82031C24.9844 6.83523 24.8864 6.84801 24.8075 6.85866C24.6222 6.8821 24.4528 6.92152 24.2994 6.97692C24.1481 7.03232 24.0266 7.11222 23.935 7.21662C23.8455 7.31889 23.8008 7.45526 23.8008 7.62571C23.8008 7.86222 23.8881 8.04119 24.0629 8.16264C24.2376 8.28196 24.4602 8.34162 24.7308 8.34162ZM28.2185 9V4.09091H29.1358V4.88991H29.1965C29.2988 4.61932 29.466 4.40838 29.6983 4.2571C29.9305 4.10369 30.2086 4.02699 30.5324 4.02699C30.8605 4.02699 31.1354 4.10369 31.357 4.2571C31.5807 4.41051 31.7458 4.62145 31.8524 4.88991H31.9035C32.0207 4.62784 32.2071 4.41903 32.4628 4.26349C32.7185 4.10582 33.0232 4.02699 33.3769 4.02699C33.8222 4.02699 34.1855 4.16655 34.4667 4.44567C34.7501 4.72479 34.8918 5.1456 34.8918 5.7081V9H33.9362V5.79759C33.9362 5.4652 33.8456 5.22443 33.6645 5.07528C33.4834 4.92614 33.2671 4.85156 33.0157 4.85156C32.7046 4.85156 32.4628 4.94744 32.2902 5.1392C32.1176 5.32884 32.0313 5.5728 32.0313 5.87109V9H31.0789V5.73686C31.0789 5.47053 30.9958 5.25639 30.8296 5.09446C30.6635 4.93253 30.4472 4.85156 30.1809 4.85156C29.9997 4.85156 29.8325 4.8995 29.6791 4.99538C29.5278 5.08913 29.4053 5.22017 29.3115 5.38849C29.2199 5.55682 29.1741 5.75178 29.1741 5.97337V9H28.2185ZM38.2884 9.09908C37.8047 9.09908 37.3881 8.99574 37.0387 8.78906C36.6914 8.58026 36.423 8.28729 36.2333 7.91016C36.0458 7.53089 35.9521 7.08665 35.9521 6.57741C35.9521 6.07457 36.0458 5.63139 36.2333 5.24787C36.423 4.86435 36.6872 4.56499 37.0259 4.34979C37.3668 4.13459 37.7653 4.02699 38.2212 4.02699C38.4982 4.02699 38.7667 4.0728 39.0266 4.16442C39.2866 4.25604 39.5199 4.39986 39.7266 4.59588C39.9332 4.7919 40.0962 5.04652 40.2156 5.35973C40.3349 5.67081 40.3945 6.04901 40.3945 6.49432V6.8331H36.4922V6.11719H39.4581C39.4581 5.86577 39.407 5.64311 39.3047 5.44922C39.2024 5.2532 39.0586 5.09872 38.8732 4.9858C38.69 4.87287 38.4748 4.81641 38.2276 4.81641C37.9592 4.81641 37.7248 4.88246 37.5245 5.01456C37.3264 5.14453 37.173 5.31499 37.0643 5.52592C36.9578 5.73473 36.9045 5.96165 36.9045 6.20668V6.76598C36.9045 7.09411 36.962 7.37322 37.0771 7.60334C37.1943 7.83345 37.3573 8.00923 37.5661 8.13068C37.7749 8.25 38.0188 8.30966 38.298 8.30966C38.4791 8.30966 38.6442 8.28409 38.7933 8.23295C38.9425 8.17969 39.0714 8.10085 39.1801 7.99645C39.2887 7.89205 39.3718 7.76314 39.4293 7.60973L40.3338 7.77273C40.2614 8.03906 40.1314 8.27237 39.9439 8.47266C39.7585 8.67081 39.5252 8.82528 39.244 8.93608C38.9649 9.04474 38.6463 9.09908 38.2884 9.09908ZM46.0355 9.08949C45.5774 9.08949 45.1726 9.01065 44.821 8.85298C44.4716 8.69531 44.1978 8.47798 43.9997 8.20099C43.8015 7.92401 43.7035 7.60866 43.7056 7.25497C43.7035 6.97798 43.76 6.72337 43.875 6.49112C43.9922 6.25675 44.1509 6.06179 44.3512 5.90625C44.5515 5.74858 44.7752 5.64844 45.0224 5.60582V5.56747C44.6964 5.48864 44.4354 5.31392 44.2394 5.04332C44.0433 4.77273 43.9464 4.46165 43.9485 4.11009C43.9464 3.77557 44.0348 3.47727 44.2138 3.2152C44.3949 2.95099 44.6431 2.74325 44.9585 2.59197C45.2738 2.4407 45.6328 2.36506 46.0355 2.36506C46.434 2.36506 46.7898 2.44176 47.103 2.59517C47.4183 2.74645 47.6666 2.95419 47.8477 3.21839C48.0288 3.48047 48.1204 3.7777 48.1225 4.11009C48.1204 4.46165 48.0203 4.77273 47.8221 5.04332C47.6239 5.31392 47.3661 5.48864 47.0487 5.56747V5.60582C47.2937 5.64844 47.5142 5.74858 47.7102 5.90625C47.9084 6.06179 48.0661 6.25675 48.1832 6.49112C48.3026 6.72337 48.3633 6.97798 48.3654 7.25497C48.3633 7.60866 48.2631 7.92401 48.065 8.20099C47.8668 8.47798 47.592 8.69531 47.2404 8.85298C46.891 9.01065 46.4894 9.08949 46.0355 9.08949ZM46.0355 8.28089C46.3061 8.28089 46.5405 8.23615 46.7386 8.14666C46.9368 8.05504 47.0902 7.92827 47.1989 7.76634C47.3075 7.60227 47.3629 7.41051 47.3651 7.19105C47.3629 6.96307 47.3033 6.76172 47.1861 6.587C47.071 6.41229 46.9144 6.27486 46.7163 6.17472C46.5181 6.07457 46.2912 6.0245 46.0355 6.0245C45.7777 6.0245 45.5487 6.07457 45.3484 6.17472C45.1481 6.27486 44.9904 6.41229 44.8754 6.587C44.7603 6.76172 44.7038 6.96307 44.706 7.19105C44.7038 7.41051 44.756 7.60227 44.8626 7.76634C44.9712 7.92827 45.1257 8.05504 45.326 8.14666C45.5263 8.23615 45.7628 8.28089 46.0355 8.28089ZM46.0355 5.23509C46.2529 5.23509 46.4457 5.19141 46.614 5.10405C46.7823 5.01669 46.9144 4.89524 47.0103 4.7397C47.1083 4.58416 47.1584 4.40199 47.1605 4.19318C47.1584 3.98864 47.1094 3.80966 47.0135 3.65625C46.9198 3.50284 46.7887 3.38459 46.6204 3.30149C46.4521 3.21626 46.2571 3.17365 46.0355 3.17365C45.8097 3.17365 45.6115 3.21626 45.4411 3.30149C45.2727 3.38459 45.1417 3.50284 45.048 3.65625C44.9542 3.80966 44.9084 3.98864 44.9105 4.19318C44.9084 4.40199 44.9553 4.58416 45.0511 4.7397C45.147 4.89524 45.2791 5.01669 45.4475 5.10405C45.6179 5.19141 45.8139 5.23509 46.0355 5.23509Z" fill="#D1A8FF"/>
</svg>
