<svg width="16" height="16" viewBox="0 0 16 16" fill="none" xmlns="http://www.w3.org/2000/svg">
<path fill-rule="evenodd" clip-rule="evenodd" d="M9.96236 4.97569H10.9601V5.97342H9.96236V4.97569ZM10.9601 10.9621H9.96236V9.96435H10.9601V10.9621ZM5.97143 5.97342H4.9737V4.97569H5.97143V5.97342ZM5.97143 10.9621H4.9737V9.96435H5.97143V10.9621ZM7.96689 0L0 7.96989L5.21016 13.179L7.96689 15.9358L15.9328 7.96889L7.96689 0Z" fill="white"/>
<path fill-rule="evenodd" clip-rule="evenodd" d="M11.9693 6.98372V5.15887L14.5205 7.9615L11.9683 10.7631L11.9693 8.95923H8.95405V11.9573H10.755L7.95632 14.5275L5.15568 11.9563L6.97954 11.9573V8.95923H3.97746L3.97846 10.7631L1.41229 7.9615L3.97746 5.15887V6.98372H6.97156V3.97247H5.16666L7.96929 1.40829L10.7699 3.97346L8.96702 3.97247V6.98372H11.9693Z" fill="black"/>
</svg>
