<svg width="16" height="16" viewBox="0 0 16 16" fill="none" xmlns="http://www.w3.org/2000/svg">
<g clip-path="url(#clip0_6_4219)">
<path d="M3.79999 12.1278C3.53888 11.7945 3.21666 11.1167 2.64999 10.2723C2.32777 9.81117 1.53333 8.93339 1.28888 8.47783C1.20278 8.34122 1.14598 8.18822 1.12208 8.02852C1.09817 7.86882 1.10768 7.70589 1.14999 7.55006C1.21992 7.25999 1.39354 7.00553 1.63812 6.83463C1.8827 6.66373 2.18135 6.5882 2.47777 6.62228C2.94999 6.72228 3.38333 6.95561 3.72777 7.28894C3.96666 7.51672 4.18333 7.76117 4.38333 8.02228C4.53333 8.21117 4.56666 8.28339 4.73333 8.4945C4.89999 8.71117 5.0111 8.92228 4.92777 8.60561C4.86666 8.1445 4.75555 7.36672 4.59444 6.67228C4.47777 6.1445 4.44999 6.06117 4.33888 5.66117C4.22777 5.26117 4.1611 4.92783 4.03888 4.47783C3.92777 4.03339 3.84444 3.57783 3.78333 3.12228C3.66648 2.54132 3.75073 1.9379 4.02222 1.41117C4.34444 1.10561 4.82222 1.02228 5.22777 1.20561C5.63673 1.50706 5.9416 1.92844 6.09999 2.41117C6.33888 3.00561 6.49999 3.62783 6.57777 4.26117C6.72777 5.18894 7.01666 6.53894 7.02222 6.81672C7.02222 6.47783 6.9611 5.75561 7.02222 5.42783C7.08888 5.0945 7.32222 4.81672 7.64444 4.68894C7.92222 4.60561 8.2111 4.58339 8.49444 4.63339C8.78333 4.68894 9.03888 4.85561 9.2111 5.0945C9.42222 5.63894 9.54444 6.20561 9.5611 6.78894C9.58333 6.28339 9.67222 5.77783 9.82222 5.28894C9.97777 5.07228 10.2 4.91672 10.4611 4.8445C10.7667 4.78894 11.0778 4.78894 11.3833 4.8445C11.6389 4.92783 11.8555 5.08894 12.0167 5.30006C12.2111 5.78894 12.3278 6.31117 12.3667 6.83894C12.3667 6.96672 12.4333 6.47783 12.6333 6.15005C12.6724 6.03442 12.7338 5.9276 12.8141 5.83571C12.8944 5.74381 12.992 5.66863 13.1014 5.61446C13.2108 5.5603 13.3297 5.5282 13.4515 5.52001C13.5733 5.51182 13.6955 5.52769 13.8111 5.56672C13.9267 5.60575 14.0336 5.66718 14.1255 5.74749C14.2174 5.82781 14.2925 5.92543 14.3467 6.0348C14.4009 6.14417 14.433 6.26313 14.4412 6.3849C14.4493 6.50667 14.4335 6.62886 14.3944 6.7445V8.83894C14.3611 9.37783 14.2833 9.91672 14.1722 10.4501C14.0111 10.9223 13.7833 11.3667 13.5055 11.7723C13.0611 12.2723 12.6833 12.8389 12.4055 13.4501C12.2668 14.0352 12.2725 14.6454 12.4222 15.2278C12.0444 15.2667 11.6611 15.2667 11.2833 15.2278C10.9222 15.1723 10.4778 14.4501 10.3555 14.2278C10.3267 14.1693 10.2819 14.1199 10.2265 14.0854C10.171 14.0509 10.107 14.0327 10.0417 14.0327C9.97634 14.0327 9.91232 14.0509 9.85685 14.0854C9.80138 14.1199 9.75667 14.1693 9.72777 14.2278C9.52222 14.5834 9.07222 15.2223 8.75555 15.2556C8.13333 15.3334 6.85555 15.2556 5.84999 15.2556C5.84999 15.2556 6.01666 14.3334 5.63333 13.9945C5.25555 13.6612 4.86666 13.2723 4.57777 13.0167L3.79999 12.1278Z" fill="white"/>
<path d="M3.79999 12.1278C3.53888 11.7945 3.21666 11.1167 2.64999 10.2723C2.32777 9.81117 1.53333 8.93339 1.28888 8.47783C1.20278 8.34122 1.14598 8.18822 1.12208 8.02852C1.09817 7.86882 1.10768 7.70589 1.14999 7.55006C1.21992 7.25999 1.39354 7.00553 1.63812 6.83463C1.8827 6.66373 2.18135 6.5882 2.47777 6.62228C2.94999 6.72228 3.38333 6.95561 3.72777 7.28894C3.96666 7.51672 4.18333 7.76117 4.38333 8.02228C4.53333 8.21117 4.56666 8.28339 4.73333 8.4945C4.89999 8.71117 5.0111 8.92228 4.92777 8.60561C4.86666 8.1445 4.75555 7.36672 4.59444 6.67228C4.47777 6.1445 4.44999 6.06117 4.33888 5.66117C4.22777 5.26117 4.1611 4.92783 4.03888 4.47783C3.92777 4.03339 3.84444 3.57783 3.78333 3.12228C3.66648 2.54132 3.75073 1.9379 4.02222 1.41117C4.34444 1.10561 4.82222 1.02228 5.22777 1.20561C5.63673 1.50706 5.9416 1.92844 6.09999 2.41117C6.33888 3.00561 6.49999 3.62783 6.57777 4.26117C6.72777 5.18894 7.01666 6.53894 7.02222 6.81672C7.02222 6.47783 6.9611 5.75561 7.02222 5.42783C7.08888 5.0945 7.32222 4.81672 7.64444 4.68894C7.92222 4.60561 8.2111 4.58339 8.49444 4.63339C8.78333 4.68894 9.03888 4.85561 9.2111 5.0945C9.42222 5.63894 9.54444 6.20561 9.5611 6.78894C9.58333 6.28339 9.67222 5.77783 9.82222 5.28894C9.97777 5.07228 10.2 4.91672 10.4611 4.8445C10.7667 4.78894 11.0778 4.78894 11.3833 4.8445C11.6389 4.92783 11.8555 5.08894 12.0167 5.30005C12.2111 5.78894 12.3278 6.31117 12.3667 6.83894C12.3667 6.96672 12.4333 6.47783 12.6333 6.15005C12.6724 6.03442 12.7338 5.9276 12.8141 5.83571C12.8944 5.74381 12.992 5.66863 13.1014 5.61446C13.2108 5.56029 13.3297 5.5282 13.4515 5.52001C13.5733 5.51182 13.6955 5.52769 13.8111 5.56672C13.9267 5.60575 14.0336 5.66718 14.1255 5.74749C14.2174 5.8278 14.2925 5.92543 14.3467 6.0348C14.4009 6.14416 14.433 6.26313 14.4412 6.3849C14.4493 6.50667 14.4335 6.62886 14.3944 6.7445V8.83894C14.3611 9.37783 14.2833 9.91672 14.1722 10.4501C14.0111 10.9223 13.7833 11.3667 13.5055 11.7723C13.0611 12.2723 12.6833 12.8389 12.4055 13.4501C12.2668 14.0352 12.2725 14.6454 12.4222 15.2278C12.0444 15.2667 11.6611 15.2667 11.2833 15.2278C10.9222 15.1723 10.4778 14.4501 10.3555 14.2278C10.3267 14.1693 10.2819 14.1199 10.2265 14.0854C10.171 14.0509 10.107 14.0327 10.0417 14.0327C9.97634 14.0327 9.91232 14.0509 9.85685 14.0854C9.80138 14.1199 9.75667 14.1693 9.72777 14.2278C9.52222 14.5834 9.07222 15.2223 8.75555 15.2556C8.13333 15.3334 6.85555 15.2556 5.84999 15.2556C5.84999 15.2556 6.01666 14.3334 5.63333 13.9945C5.25555 13.6612 4.86666 13.2723 4.57777 13.0167L3.79999 12.1278Z" stroke="black" stroke-width="1.25" stroke-linecap="round" stroke-linejoin="round"/>
<path d="M11.4722 12.389V8.92229C11.4722 8.71118 11.3 8.54451 11.0833 8.54451C10.8778 8.54451 10.7055 8.71118 10.7055 8.92229V12.3834C10.7055 12.5945 10.8722 12.7612 11.0889 12.7612C11.3 12.7612 11.4722 12.5945 11.4722 12.3834V12.389ZM9.55555 12.389L9.53332 8.91673C9.53296 8.86785 9.52297 8.81952 9.50393 8.7745C9.48489 8.72948 9.45716 8.68865 9.42234 8.65434C9.38752 8.62004 9.34628 8.59293 9.30098 8.57456C9.25568 8.55619 9.20721 8.54692 9.15832 8.54729C9.10944 8.54765 9.06111 8.55764 9.01609 8.57668C8.97107 8.59573 8.93024 8.62345 8.89594 8.65827C8.86163 8.6931 8.83452 8.73433 8.81615 8.77963C8.79778 8.82493 8.78852 8.87341 8.78888 8.92229L8.8111 12.389C8.8111 12.4877 8.85032 12.5824 8.92012 12.6522C8.98993 12.722 9.08461 12.7612 9.18333 12.7612C9.28204 12.7612 9.37672 12.722 9.44653 12.6522C9.51633 12.5824 9.55555 12.4877 9.55555 12.389ZM6.87221 8.92784L6.89444 12.3834C6.89444 12.5945 7.0611 12.7612 7.26666 12.7612C7.47221 12.7612 7.63888 12.5945 7.63888 12.3834L7.61666 8.92229C7.61666 8.71118 7.44999 8.54451 7.24444 8.54451C7.03888 8.54451 6.87221 8.71673 6.87221 8.92784Z" fill="black"/>
</g>
<defs>
<clipPath id="clip0_6_4219">
<rect width="16" height="16" fill="white"/>
</clipPath>
</defs>
</svg>
