<svg width="16" height="16" viewBox="0 0 16 16" fill="none" xmlns="http://www.w3.org/2000/svg">
<path fill-rule="evenodd" clip-rule="evenodd" d="M0 7.99851V8.00351L5.997 13.9995L5.998 10.0005H7.997H10.017V14.0005L15.997 7.99951L10.017 2.00051L10.018 6.01951L7.997 6.02151H5.997L5.998 1.99951L0 7.99851ZM1.411 8.00151L4.998 4.41351L4.997 7.00051H8.497H11.018V4.41551L14.583 8.00151L11.019 11.5865L11.018 9.00151H8.497L4.998 9.00051L4.997 11.5865L1.411 8.00151Z" fill="white"/>
<path fill-rule="evenodd" clip-rule="evenodd" d="M8.4971 9.001H11.0181V11.587L14.5831 8.001L11.0181 4.416V7.021H8.4971H4.9971V4.414L1.4111 8.001L4.9971 11.587V9L8.4971 9.001Z" fill="black"/>
</svg>
