<svg width="16" height="16" viewBox="0 0 16 16" fill="none" xmlns="http://www.w3.org/2000/svg">
<path d="M8.94444 11.2666V8.91663H9.65V7.24996H8.94444V4.22219C9.05556 3.97774 9.22222 3.76663 9.42778 3.58885C9.55556 3.49996 9.71667 3.41107 9.88889 3.34441C10.1039 3.31161 10.3219 3.3023 10.5389 3.31663L11.0222 3.34441L11.05 2.86107L11.0944 2.15552L11.1278 1.67219L10.6389 1.63885C10.25 1.61663 9.86111 1.63885 9.47222 1.71663L9.44444 1.72219L9.41111 1.7333C9.02222 1.87219 8.69444 2.04441 8.4 2.26107L8.38889 2.26663L8.37222 2.27774C8.28333 2.34996 8.2 2.4333 8.11667 2.51107C8.04724 2.43789 7.97496 2.36747 7.9 2.29996L7.88333 2.2833L7.86667 2.27219C7.55911 2.03245 7.21099 1.84992 6.83889 1.7333L6.81667 1.72774L6.79444 1.72219C6.3948 1.63747 5.98549 1.60756 5.57778 1.6333L5.09444 1.66663L5.12778 2.14996L5.17222 2.85552L5.20556 3.34441L5.68889 3.31107C5.92778 3.29441 6.16111 3.31107 6.39444 3.35552C6.52222 3.39996 6.67222 3.47219 6.80556 3.57774C6.98889 3.74441 7.15556 3.97774 7.27222 4.23885V7.24996H6.56667V8.91663H7.27222V11.25C7.15556 11.5111 6.98889 11.7444 6.78333 11.9389C6.67222 12.0166 6.52778 12.0944 6.36667 12.1444C6.16667 12.1833 5.92222 12.2 5.68889 12.1777L5.20556 12.15L5.17222 12.6333L5.12778 13.3389L5.09444 13.8277L5.57778 13.8555C5.97222 13.8833 6.36667 13.8555 6.75556 13.7777H6.77778L6.8 13.7666C7.1773 13.6556 7.53123 13.4767 7.84444 13.2389L7.86111 13.2277L7.87778 13.2111L8.12222 12.9722C8.2 13.05 8.27778 13.1222 8.36667 13.1944L8.37778 13.2055L8.38889 13.2111C8.69444 13.4444 9.02222 13.6166 9.36667 13.7389L9.39444 13.75L9.42778 13.7555C9.85556 13.85 10.2444 13.8777 10.6333 13.8555L11.1222 13.8277L11.0944 13.3444L11.0556 12.6389L11.0278 12.1555L10.5444 12.1777C10.3111 12.1944 10.0833 12.1777 9.85556 12.1333C9.72222 12.0777 9.56667 11.9944 9.41111 11.8833C9.21469 11.7121 9.05581 11.5022 8.94444 11.2666Z" fill="black" stroke="white" stroke-width="0.972222"/>
</svg>
